Units are S.I. units (second, meters, Newtons, ...)
Angles are in degrees.
name walk
datarows 5
datacolumns 43
range 0  2
endheader
time exo_pelvis_tx exo_pelvis_ty exo_pelvis_tz exo_pelvis_tilt exo_pelvis_list exo_pelvis_rotation exo_hip_r exo_hip_l exo_knee_r exo_knee_l r_ankle_coupling r_PM-universalJoint r_PL-universalJoint l_ankle_coupling l_PM-universalJoint l_PL-universalJoint r_foot r_PM_motor r_PL_motor l_foot l_PM_motor l_PL_motor r_DM_universalJoint r_DL_universalJoint r_PM_motor_gear r_PM_ballScrewGear r_PL_motor_gear r_PL_ballScrewGear l_DM_universalJoint l_DL_universalJoint l_PM_motor_gear l_PM_ballScrewGear l_PL_motor_gear l_PL_ballScrewGear r_DM_ballScrewEnd r_DL_ballScrewEnd l_DM_ballScrewEnd l_DL_ballScrewEnd r_DM_ballScrewNut r_DL_ballScrewNut l_DM_ballScrewNut l_DL_ballScrewNut 
0.0e0 -3.455259e-01 9.453734e-01 -1.584092e-06 0.000000e+00 0.000000e+00 0.000000e+00 -4.991319e+00 -4.992626e+00 2.132662e+00 2.135478e+00 2.858654e+00 -3.686783e+00 3.969524e+00 2.857152e+00 -3.686848e+00 3.969559e+00 1.113279e-04 -2.064982e+00 -2.064283e+00 -9.732375e-05 -2.065643e+00 -2.064978e+00 -3.698122e+00 3.981510e+00 3.929247e-01 3.864198e-01 7.008087e-01 7.770462e-01 -3.697985e+00 3.981734e+00 3.929247e-01 -7.548898e-01 7.008087e-01 -3.797536e-01 -4.917707e+00 -4.916059e+00 -4.916865e+00 -4.915259e+00 5.708084e-01 5.784729e-01 5.705353e-01 5.781645e-01 
0.5e0 -3.439227e-01 9.451411e-01 -7.905455e-05 0.000000e+00 0.000000e+00 0.000000e+00 1.568308e+01 -2.756703e+00 -3.071511e+01 -2.994901e+00 1.503134e+01 -3.367200e+00 3.626353e+00 5.750904e+00 -3.599169e+00 3.874371e+00 5.220861e-03 3.482179e+00 3.482208e+00 -5.219948e-03 -7.558515e-01 -7.564951e-01 -3.434893e+00 3.689453e+00 3.920955e-01 1.906035e+00 7.011191e-01 3.763834e+00 -3.617304e+00 3.903922e+00 3.916095e-01 -1.488441e+00 7.009249e-01 -7.418466e-01 -1.152311e+01 -1.151872e+01 -6.495265e+00 -6.494296e+00 2.795275e+00 2.803093e+00 1.124198e+00 1.130787e+00 
1.0e0 -2.604635e-01 9.346821e-01 -9.729113e-06 0.000000e+00 0.000000e+00 0.000000e+00 2.248331e+01 -1.029135e+01 -4.701966e+01 -4.244858e-01 2.453635e+01 -3.199003e+00 3.444608e+00 1.071583e+01 -3.466056e+00 3.731843e+00 6.748552e-04 7.873987e+00 7.872192e+00 -6.640291e-04 1.504666e+00 1.504108e+00 -3.307776e+00 3.560464e+00 3.921116e-01 2.951752e+00 7.011037e-01 5.836323e+00 -3.509377e+00 3.779726e+00 3.916539e-01 -2.690751e+00 7.009337e-01 -1.342929e+00 -1.662404e+01 -1.661970e+01 -9.191422e+00 -9.188863e+00 4.337365e+00 4.344045e+00 2.038089e+00 2.045170e+00 
1.5e0 -2.410584e-01 9.308384e-01 -1.013000e-05 0.000000e+00 0.000000e+00 0.000000e+00 2.220249e+01 -1.172243e+01 -3.671623e+01 -5.582131e-01 1.451259e+01 -3.377019e+00 3.635107e+00 1.227950e+01 -3.431111e+00 3.689973e+00 -1.492009e-13 3.241682e+00 3.241008e+00 5.808972e-15 2.217275e+00 2.216734e+00 -3.436521e+00 3.700385e+00 3.921220e-01 1.845504e+00 7.011004e-01 3.642803e+00 -3.481925e+00 3.743436e+00 3.916595e-01 -3.058412e+00 7.009316e-01 -1.528608e+00 -1.124559e+01 -1.124218e+01 -1.004006e+01 -1.003718e+01 2.707632e+00 2.714633e+00 2.317754e+00 2.324864e+00 
2.0e0 -2.152758e-01 9.249007e-01 1.013000e-05 0.000000e+00 0.000000e+00 0.000000e+00 1.889864e+01 -1.378721e+01 -2.154799e+01 -4.115907e-01 2.648196e+00 -3.691475e+00 3.973985e+00 1.419765e+01 -3.387894e+00 3.643561e+00 1.195842e-03 -2.162884e+00 -2.161927e+00 -2.615943e-20 3.096943e+00 3.096185e+00 -3.701840e+00 3.984055e+00 -4.695384e+01 3.604517e-01 1.082846e+02 7.245167e-01 -3.447223e+00 3.706176e+00 -8.798777e+01 -3.499467e+00 1.479925e+02 -1.750435e+00 -4.805605e+00 -4.803716e+00 -1.107572e+01 -1.107262e+01 5.310547e-01 5.389175e-01 2.653218e+00 2.660234e+00 
